<svg height="512pt" viewBox="0 -47 512 512" width="512pt" xmlns="http://www.w3.org/2000/svg"><path d="m234.964844 193.09375v81.726562c0 3.75 3.046875 6.785157 6.789062 6.785157h18.449219v-59.488281c0-8.277344 6.71875-14.992188 15-14.992188 8.289063 0 15 6.714844 15 14.992188v59.488281h68.351563c3.75 0 6.789062-3.035157 6.789062-6.785157v-81.726562l-65.191406-56.882812zm75.238281 29.023438c0-8.273438 6.71875-14.992188 15-14.992188 8.289063 0 15 6.71875 15 14.992188v23.25c0 8.285156-6.710937 14.992187-15 14.992187-8.28125 0-15-6.707031-15-14.992187zm0 0"/><path d="m478.140625 38.890625h-344.066406c.890625 4.867187 1.359375 9.875 1.359375 14.992187v296.460938c0 16.5625-13.429688 29.984375-30 29.984375-16.570313 0-30-13.421875-30-29.984375 0-12.503906-10.179688-22.679688-22.691406-22.679688-12.507813 0-22.6875 10.175782-22.6875 22.679688 0 16.5625-13.433594 29.984375-30.0000005 29.984375 4.0585935 24.40625 23.5078125 37.671875 59.7109375 37.671875h418.375c18.667969 0 33.859375-15.171875 33.859375-33.832031v-311.445313c0-18.660156-15.191406-33.832031-33.859375-33.832031zm-166.9375 325.675781h-91.238281c-8.28125 0-15-6.714844-15-14.992187 0-8.285157 6.71875-14.992188 15-14.992188h91.238281c8.289063 0 15 6.707031 15 14.992188 0 8.277343-6.710937 14.992187-15 14.992187zm69.140625 0h-18.910156c-8.289063 0-15-6.714844-15-14.992187 0-8.285157 6.710937-14.992188 15-14.992188h18.910156c8.289062 0 15 6.707031 15 14.992188 0 8.277343-6.710938 14.992187-15 14.992187zm15-89.746094c0 20.28125-16.5 36.773438-36.789062 36.773438h-116.800782c-20.28125 0-36.789062-16.492188-36.789062-36.773438v-86.726562c0-5.484375 2.367187-10.703125 6.507812-14.3125l76.179688-66.464844c7.128906-6.21875 17.871094-6.21875 25 0l25.929687 22.617188v-19.550782c0-8.273437 6.722657-14.992187 15-14.992187 8.28125 0 15 6.71875 15 14.992187v45.726563l20.261719 17.671875c4.128906 3.609375 6.5 8.828125 6.5 14.3125zm53.871094 17.234376c0 8.273437-6.722656 14.992187-15 14.992187-8.292969 0-15-6.71875-15-14.992187v-91.195313c0-8.285156 6.707031-14.992187 15-14.992187 8.277344 0 15 6.707031 15 14.992187zm0-141.402344c0 8.277344-6.722656 14.996094-15 14.996094-8.292969 0-15-6.71875-15-14.996094v-18.898438c0-8.285156 6.707031-14.992187 15-14.992187 8.277344 0 15 6.707031 15 14.992187zm0 0"/><path d="m53.203125 299.34375c29.382813 0 53.199219 23.804688 53.199219 53.175781v-299.34375c0-29.367187-23.816406-53.175781-53.199219-53.175781s-53.203125 23.808594-53.203125 53.175781v299.34375c0-29.367187 23.820312-53.175781 53.203125-53.175781zm0 0"/></svg>